<svg width="135" height="59" viewBox="0 0 135 59" fill="none" xmlns="http://www.w3.org/2000/svg">
<path fill-rule="evenodd" clip-rule="evenodd" d="M96.7016 5.87054L99.0664 7.63872L96.833 9.30912H131.56V54.6202H3.43894V9.30912H76.4923L78.7242 7.63872L76.3587 5.87054H0V58.056H135V5.87054H96.7016Z" fill="white"/>
<path fill-rule="evenodd" clip-rule="evenodd" d="M96.7016 5.87054L99.0664 7.63872L96.833 9.30912H131.56V54.6202H3.43894V9.30912H76.4923L78.7242 7.63872L76.3587 5.87054H0V58.056H135V5.87054H96.7016Z" fill="url(#paint0_linear)"/>
<path d="M86.1284 0.378418V4.0962L91.1008 7.81146L86.1284 11.527V15.2425L96.0722 7.81146L86.1284 0.378418Z" fill="white"/>
<path d="M86.1284 0.378418V4.0962L91.1008 7.81146L86.1284 11.527V15.2425L96.0722 7.81146L86.1284 0.378418Z" fill="url(#paint1_linear)"/>
<path d="M87.286 7.81152L77.3423 0.378478V4.09626L82.3136 7.81152L77.3423 11.528V15.2435L87.286 7.81152Z" fill="white"/>
<path d="M87.286 7.81152L77.3423 0.378478V4.09626L82.3136 7.81152L77.3423 11.528V15.2435L87.286 7.81152Z" fill="url(#paint2_linear)"/>
<path fill-rule="evenodd" clip-rule="evenodd" d="M17.1549 34.8023H21.6856C29.5364 34.8023 29.5132 23.3391 21.6856 23.3391C20.4272 23.3391 19.1685 23.3448 17.9098 23.3505C16.6511 23.3562 15.3925 23.3619 14.1342 23.3619V39.5744H17.1549V34.8023ZM21.6857 32H17.1549V26.2563H21.6857C25.5313 26.2563 25.5534 32 21.6857 32Z" fill="white"/>
<path fill-rule="evenodd" clip-rule="evenodd" d="M79.9939 34.8023H84.5247C92.3755 34.8023 92.3523 23.3391 84.5247 23.3391C83.2662 23.3391 82.0076 23.3448 80.7489 23.3505C79.4903 23.3562 78.2317 23.3619 76.9734 23.3619V39.5744H79.9939V34.8023ZM84.5248 32H79.994V26.2563H84.5248C88.3704 26.2563 88.3925 32 84.5248 32Z" fill="white"/>
<path fill-rule="evenodd" clip-rule="evenodd" d="M95.9591 34.8023H100.49C108.341 34.8023 108.317 23.3391 100.49 23.3391C99.2314 23.3391 97.9727 23.3448 96.714 23.3505C95.4554 23.3562 94.1967 23.3619 92.9384 23.3619V39.5744H95.9591V34.8023ZM100.49 32H95.959V26.2563H100.49C104.335 26.2563 104.358 32 100.49 32Z" fill="white"/>
<path fill-rule="evenodd" clip-rule="evenodd" d="M35.7708 26.7548L32.7961 33.656H38.7467L35.7708 26.7548ZM39.9586 36.5043H31.5839L30.2105 39.5629H26.9373L34.1238 23.3505H37.4187L44.605 39.5629H41.3102L39.9586 36.5043Z" fill="white"/>
<path fill-rule="evenodd" clip-rule="evenodd" d="M66.1649 26.7548L63.1903 33.656H69.1407L66.1649 26.7548ZM70.3528 36.5043H61.9779L60.6047 39.5629H57.3315L64.518 23.3505H67.8128L74.9992 39.5629H71.7044L70.3528 36.5043Z" fill="white"/>
<path fill-rule="evenodd" clip-rule="evenodd" d="M118.559 27.3346C118.01 26.4078 116.5 25.528 114.76 25.528C112.518 25.528 111.441 26.4768 111.441 27.6816C111.441 29.0953 113.089 29.4881 115.011 29.7201C118.353 30.1371 121.466 31.0169 121.466 34.885C121.466 38.4972 118.308 40.0487 114.738 40.0487C111.464 40.0487 108.947 39.0299 107.758 36.0657L110.274 34.746C110.984 36.5286 112.838 37.3166 114.783 37.3166C116.682 37.3166 118.467 36.6445 118.467 34.885C118.467 33.3563 116.888 32.7304 114.76 32.4984C111.488 32.1057 108.466 31.2246 108.466 27.5885C108.466 24.2544 111.716 22.8888 114.669 22.8647C117.162 22.8647 119.749 23.5836 120.962 26.084L118.559 27.3346Z" fill="white"/>
<path fill-rule="evenodd" clip-rule="evenodd" d="M55.1206 23.3304L50.8898 30.1992L46.694 23.3304H43.126L49.2526 32.7434L49.276 39.5426H52.5385L52.5618 32.7434L58.6886 23.3304H55.1206Z" fill="white"/>
<defs>
<linearGradient id="paint0_linear" x1="70.9706" y1="6.26327" x2="82.8384" y2="19.1127" gradientUnits="userSpaceOnUse">
<stop stop-color="#1EBCFF"/>
<stop offset="1" stop-color="#007AFF"/>
</linearGradient>
<linearGradient id="paint1_linear" x1="70.9706" y1="6.26327" x2="82.8384" y2="19.1127" gradientUnits="userSpaceOnUse">
<stop stop-color="#1EBCFF"/>
<stop offset="1" stop-color="#007AFF"/>
</linearGradient>
<linearGradient id="paint2_linear" x1="70.9706" y1="6.26327" x2="82.8384" y2="19.1127" gradientUnits="userSpaceOnUse">
<stop stop-color="#1EBCFF"/>
<stop offset="1" stop-color="#007AFF"/>
</linearGradient>
</defs>
</svg>
